<svg role="img" viewBox="0 0 24 24" xmlns="http://www.w3.org/2000/svg"><title>Helix</title><path d="m 4.36,0 v 3.5505 c 0,0.4482 0.239,0.8625 0.6273,1.0867 1.0083,0.5821 2.8168,1.6261 5.1148,2.9527 L 4.992,10.539 A 1.2645,1.2643 0 0 0 4.5295,11.002 1.2662,1.2661 0 0 0 4.457,11.149 c -0.0138,0.0332 -0.024,0.068 -0.035,0.1024 -0.006,0.0178 -0.0133,0.0349 -0.0181,0.0531 A 1.267,1.2674 0 0 0 4.36,11.634 v 2.8134 a 1.2674,1.2672 0 0 0 0.0438,0.3306 1.2657,1.2656 0 0 0 0.5892,0.7660 L 6.492,16.410 4.993,17.275 A 1.2654,1.2652 0 0 0 4.36,18.371 v 2.8134 a 1.2658,1.265 0 0 0 0.6329,1.096 l 0.7655,0.441 C 5.319,22.461 5.170,21.888 5.426,21.444 A 0.9318,0.9316 0 0 1 5.769,21.102 L 10.195,18.547 19.639,24 v -3.550 c 0,-0.4482 -0.239,-0.8623 -0.6273,-1.0864 -1.008,-0.582 -2.8169,-1.6261 -5.115,-2.952 l 1.7826,-1.029 2.550,-1.4725 -0.0106,0.006 0.7869,-0.454 A 1.2655,1.2653 0 0 0 19.64,12.365 V 9.5522 A 1.2648,1.2647 0 0 0 19.47,8.919 c -0.0182,-0.0314 -0.0397,-0.0608 -0.0605,-0.0906 -0.0105,-0.015 -0.0193,-0.0311 -0.0304,-0.0456 A 1.263,1.2634 0 0 0 19.00,8.455 L 18.241,8.0140 17.50,7.590 18.230,7.172 18.21,7.179 19.006,6.724 A 1.265,1.265 0 0 0 19.64,5.628 V 2.814 A 1.265,1.265 0 0 0 19.00,1.7189 L 18.241,1.2760 c 0.439,0.2612 0.588,0.834 0.331,1.278 a 0.928,0.928 0 0 1 -0.335,0.338 l -0.006,0.003 -4.425,2.554 z m 9.444,9.727 2.133,1.231 -5.742,3.314 -2.132,-1.231 z"/></svg>